<?xml version="1.0" encoding="UTF-8" standalone="no"?>
<svg
   version="1.1"
   width="600"
   height="400"
   viewbox="0 0 600 400"
   id="svg10"
   xmlns="http://www.w3.org/2000/svg"
   xmlns:svg="http://www.w3.org/2000/svg"
   xmlns:rdf="http://www.w3.org/1999/02/22-rdf-syntax-ns#"
   xmlns:cc="http://creativecommons.org/ns#"
   xmlns:dc="http://purl.org/dc/elements/1.1/">
  <defs
     id="defs14" />
  <title
     id="title2">undefined</title>
  <path
     d="M188.5,88 C186.025,87.45,181.975,87.225,179.5,87.5 C177.025,87.775,170.275,88.675,164.5,89.5 C158.725,90.325,148.6,92.8,142,95 C135.4,97.2,124.375,101.7,117.5,105 C110.625,108.3,100.05,114.15,94,118 C87.95,121.85,78.275,129.05,72.5,134 C66.725,138.95,58.4,147.5,54,153 C49.6,158.5,43.75,166.825,41,171.5 C38.25,176.175,34.425,183.825,32.5,188.5 C30.575,193.175,28.55,198.8,28,201 C27.45,203.2,26.55,208.15,26,212 C25.45,215.85,25.225,221.025,25.5,223.5 C25.775,225.975,26.675,230.475,27.5,233.5 C28.325,236.525,30.8,241.475,33,244.5 C35.2,247.525,38.575,250.9,40.5,252 C42.425,253.1,45.8,254.45,48,255 C50.2,255.55,56.275,256.225,61.5,256.5 C66.725,256.775,75.05,256.55,80,256 C84.95,255.45,93.05,254.1,98,253 C102.95,251.9,112.175,249.425,118.5,247.5 C124.825,245.575,136.075,241.3,143.5,238 C150.925,234.7,163.075,228.175,170.5,223.5 C178.478,218.477,184.614,213.568,185.5,211.5 C186.325,209.575,186.775,206.875,186.5,205.5 C186.154,203.768,184.771,203.154,182,203.5 C179.8,203.775,176.65,205.125,175,206.5 C173.35,207.875,168.625,211.25,164.5,214 C160.375,216.75,154.3,220.35,151,222 C147.7,223.65,140.725,226.8,135.5,229 C130.275,231.2,121.95,234.35,117,236 C112.05,237.65,103.95,239.9,99,241 C94.05,242.1,84.375,243.225,77.5,243.5 C69.888,243.804,62.654,243.022,59,241.5 C55.7,240.125,51.65,237.425,50,235.5 C48.35,233.575,46.325,230.425,45.5,228.5 C44.675,226.575,43.775,220.95,43.5,216 C43.218,210.923,44.308,203.077,46,198 C47.65,193.05,51.7,184.5,55,179 C58.3,173.5,65.5,164.05,71,158 C76.5,151.95,84.6,144.075,89,140.5 C93.4,136.925,101.05,131.3,106,128 C110.95,124.7,117.7,120.65,121,119 C124.3,117.35,131.5,114.2,137,112 C142.5,109.8,150.825,106.875,155.5,105.5 C160.175,104.125,168.275,102.325,173.5,101.5 C178.725,100.675,185.7,100.225,189,100.5 L195,101 L196,97.5 C196.55,95.575,196.1,92.875,195,91.5 C193.9,90.125,190.975,88.55,188.5,88 M392.5,98 C391.675,98,388.75,99.125,386,100.5 C383.25,101.875,366.6,104.8,349,107 C331.4,109.2,314.075,111.9,310.5,113 C306.925,114.1,303.55,115.675,303,116.5 C302.45,117.325,302.675,118.9,303.5,120 C304.325,121.1,307.7,121.775,311,121.5 C314.3,121.225,319.25,120.55,322,120 C324.75,119.45,333.525,118.325,341.5,117.5 C349.475,116.675,358.025,115.775,360.5,115.5 C362.975,115.225,367.7,114.775,371,114.5 L377,114 L368,130.5 C363.05,139.575,357.65,149.7,356,153 C354.35,156.3,351.2,162.825,349,167.5 C346.8,172.175,342.975,180.725,340.5,186.5 C338.025,192.275,335.1,199.7,334,203 C332.9,206.3,332.45,209.9,333,211 C333.55,212.1,335.8,213.225,338,213.5 C340.667,213.833,342.667,213,344,211 C345.1,209.35,350.5,197.2,356,184 C361.5,170.8,368.025,155.95,370.5,151 C372.975,146.05,378.375,136.15,382.5,129 C386.625,121.85,391.575,115.1,393.5,114 C395.425,112.9,403.975,111.775,412.5,111.5 C421.025,111.225,430.025,110.775,432.5,110.5 C434.975,110.225,441.725,110.45,447.5,111 C453.275,111.55,458.675,111.55,459.5,111 C460.325,110.45,461.45,108.875,462,107.5 C462.567,106.083,461.917,104.133,460.5,103 C459.122,101.897,449.25,100.776,438.5,100.5 C427.775,100.225,414.95,100.225,410,100.5 C405.05,100.775,399.425,100.325,397.5,99.5 C395.575,98.675,393.325,98,392.5,98 M541,140.5 C539.9,140.225,536.3,140.9,533,142 C529.7,143.1,524.75,146.025,522,148.5 C519.25,150.975,515.425,155.475,513.5,158.5 C511.575,161.525,509.325,166.475,508.5,169.5 C507.675,172.525,507.225,177.025,507.5,179.5 C507.775,181.975,509.125,185.125,510.5,186.5 C511.875,187.875,515.25,189.225,518,189.5 C520.75,189.775,525.925,188.875,529.5,187.5 C533.075,186.125,541.175,182.075,547.5,178.5 C553.825,174.925,561.25,169.975,564,167.5 C566.75,165.025,569.225,162.1,569.5,161 C569.843,159.628,568.745,159.314,566,160 C563.8,160.55,559.3,162.8,556,165 C552.7,167.2,546.625,170.8,542.5,173 C538.375,175.2,532.525,177.9,529.5,179 C526.475,180.1,522.875,180.325,521.5,179.5 C520.125,178.675,518.775,175.975,518.5,173.5 C518.169,170.524,519.016,168.154,521,166.5 C522.65,165.125,527.375,163.1,531.5,162 C535.625,160.9,541.025,158.65,543.5,157 C545.975,155.35,548.45,152.425,549,150.5 C549.55,148.575,549.55,146.325,549,145.5 C548.45,144.675,546.875,143.325,545.5,142.5 C544.125,141.675,542.1,140.775,541,140.5 M441,141 C439.9,141,434.95,144.6,430,149 C425.05,153.4,415.825,161.275,409.5,166.5 C403.175,171.725,396.2,177.35,394,179 L390,182 L396,171 C399.3,164.95,403.575,157.75,405.5,155 C407.425,152.25,409.225,149.55,409.5,149 C409.775,148.45,408.425,147.775,406.5,147.5 C403.844,147.121,401.795,148.447,398,153 C395.25,156.3,390.75,162.825,388,167.5 C385.25,172.175,382.325,178.025,381.5,180.5 C380.675,182.975,380.225,185.9,380.5,187 C380.783,188.133,382.733,188.783,385,188.5 C387.2,188.225,393.5,185.3,399,182 C404.5,178.7,412.825,172.85,417.5,169 C422.175,165.15,426.45,161.775,427,161.5 C427.55,161.225,425.3,165.5,422,171 C418.7,176.5,414.425,181.9,412.5,183 C410.575,184.1,404.275,187.25,398.5,190 C392.725,192.75,383.95,197.925,379,201.5 C374.05,205.075,367.75,210.475,365,213.5 C362.25,216.525,358.875,221.25,357.5,224 C356.125,226.75,355.225,230.8,355.5,233 C355.833,235.667,357.333,237.667,360,239 C362.2,240.1,366.025,241.225,368.5,241.5 C370.975,241.775,375.475,241.325,378.5,240.5 C381.525,239.675,387.6,236.75,392,234 C396.525,231.172,401.955,226.177,404.5,222.5 C406.975,218.925,411.25,210.6,414,204 C416.75,197.4,420.35,189.975,422,187.5 C424.001,184.498,428.829,181.169,436.5,177.5 C442.825,174.475,449.35,171.1,451,170 L454,168 L450,175 C447.8,178.85,444.425,182.9,442.5,184 C440.2,185.315,439.171,187.028,439.5,189 C439.775,190.65,438.2,195.6,436,200 C433.8,204.4,430.65,210.7,429,214 C427.35,217.3,425.775,220.675,425.5,221.5 C425.225,222.325,426.125,223.45,427.5,224 C428.875,224.55,431.35,224.325,433,223.5 C434.65,222.675,438.475,217.5,441.5,212 C444.525,206.5,448.35,199.75,450,197 C451.989,193.685,454.685,191.494,458,190.5 C460.75,189.675,465.7,188.1,469,187 C472.3,185.9,478.15,182.75,482,180 C485.85,177.25,491.25,171.85,494,168 C496.75,164.15,499.675,159.425,500.5,157.5 C501.325,155.575,502.225,152.875,502.5,151.5 C502.775,150.125,502.1,147.425,501,145.5 C499.9,143.575,497.875,141.775,496.5,141.5 C495.125,141.225,490.85,142.8,487,145 C483.15,147.2,477.75,150.8,475,153 L470,157 L473.5,150 C475.425,146.15,476.775,142.55,476.5,142 C476.225,141.45,474.425,141.225,472.5,141.5 C470.292,141.815,467.708,144.03,465.5,147.5 C463.575,150.525,460.425,155.025,458.5,157.5 C456.487,160.088,450.538,164.125,444.5,167 C438.725,169.75,432.65,172.9,431,174 C428.713,175.525,429.188,173.861,433,167 C435.75,162.05,439.8,155.075,442,151.5 C444.671,147.159,445.502,144.336,444.5,143 C443.675,141.9,442.1,141,441,141 M318,144 C317.45,144,314.525,146.25,311.5,149 C308.475,151.75,304.65,155.35,303,157 C301.35,158.65,297.075,162.475,293.5,165.5 C289.925,168.525,284.525,172.8,281.5,175 L276,179 L281.5,169 C284.525,163.5,288.35,156.975,290,154.5 C291.65,152.025,292.775,148.875,292.5,147.5 C292.18,145.9,290.919,145.18,289,145.5 C287.35,145.775,283.975,148.7,281.5,152 C279.025,155.3,275.425,161.15,273.5,165 C271.575,168.85,268.875,175.15,267.5,179 C266.125,182.85,265.225,187.125,265.5,188.5 C265.859,190.294,266.989,190.718,269.5,190 C271.425,189.45,277.05,186.075,282,182.5 C286.95,178.925,291.9,175.325,293,174.5 C294.562,173.328,294.781,173.876,294,177 C293.45,179.2,293.225,182.35,293.5,184 C293.775,185.65,295.125,187.225,296.5,187.5 C297.875,187.775,302.375,186.425,306.5,184.5 C310.625,182.575,318.275,178.525,323.5,175.5 C328.725,172.475,334.575,168.425,336.5,166.5 C338.425,164.575,339.775,162.55,339.5,162 C339.225,161.45,336.975,161.45,334.5,162 C332.025,162.55,327.525,164.575,324.5,166.5 C321.475,168.425,316.75,171.125,314,172.5 C311.25,173.875,308.1,175.45,307,176 C305.9,176.55,306.8,173.175,309,168.5 C311.2,163.825,314.8,157.075,317,153.5 C319.2,149.925,320.55,146.325,320,145.5 C319.45,144.675,318.55,144,318,144 M201.5,145 C201.225,145,198.075,146.575,194.5,148.5 C190.925,150.425,185.3,154.475,182,157.5 L176,163 L177.5,156 C178.651,150.627,178.419,148.768,176.5,148 C175.125,147.45,171.75,147.9,169,149 C166.25,150.1,160.85,153.25,157,156 C153.15,158.75,148.875,162.125,147.5,163.5 C146.125,164.875,144.55,166.225,144,166.5 C143.45,166.775,144.35,163.625,146,159.5 C147.65,155.375,148.775,151.325,148.5,150.5 C148.225,149.675,147.325,148.775,146.5,148.5 C145.675,148.225,143.875,149.125,142.5,150.5 C141.125,151.875,137.75,157.725,135,163.5 C132.25,169.275,128.425,176.925,126.5,180.5 C124.575,184.075,122.775,188.125,122.5,189.5 C122.116,191.419,122.813,191.884,125.5,191.5 C127.624,191.197,133.128,186.675,139.5,180 C145.275,173.95,152.925,166.975,156.5,164.5 C160.075,162.025,164.125,159.325,165.5,158.5 C167.25,157.45,166.5,160.749,163,169.5 C160.25,176.375,157.55,183.125,157,184.5 C156.433,185.917,156.867,187.217,158,187.5 C159.1,187.775,164.95,182.825,171,176.5 C177.05,170.175,184.7,163.2,188,161 L194,157 L192.5,164.5 C191.675,168.625,190.325,174.475,189.5,177.5 L188,183 L191,183.5 C192.65,183.775,198.05,181.975,203,179.5 C207.95,177.025,214.25,173.65,217,172 L222,169 L217.5,177 C215.025,181.4,211.65,185.9,210,187 C208.236,188.176,207.206,190.236,207.5,192 C207.775,193.65,205.525,199.95,202.5,206 C199.475,212.05,196.325,218.575,195.5,220.5 C194.565,222.681,194.754,224.377,196,225 C197.1,225.55,199.575,224.875,201.5,223.5 C203.425,222.125,206.8,217.85,209,214 C211.2,210.15,213.9,204.975,215,202.5 C216.1,200.025,218.35,196.65,220,195 C221.65,193.35,226.15,191.325,230,190.5 C233.85,189.675,239.925,186.975,243.5,184.5 C247.075,182.025,251.8,177.75,254,175 C256.2,172.25,259.35,167.3,261,164 C262.65,160.7,263.775,155.75,263.5,153 C263.179,149.787,261.928,147.464,260,146.5 C257.832,145.416,255.058,146.11,250,149 C246.15,151.2,241.65,154.35,240,156 L237,159 L239,153 C240.1,149.7,240.775,146.55,240.5,146 C240.225,145.45,238.65,145.225,237,145.5 C235.172,145.805,232.047,149.124,229,154 L224,162 L213,167 C206.95,169.75,201.775,172.225,201.5,172.5 C201.225,172.775,201.225,170.525,201.5,167.5 C201.775,164.475,203.125,158.625,204.5,154.5 C206.5,148.5,206.5,146.8,204.5,146 C203.125,145.45,201.775,145,201.5,145 M536.5,148.5 C538.435,148.887,538.548,149.565,537,151.5 C535.9,152.875,532.975,154.9,530.5,156 C528.025,157.1,525.325,157.775,524.5,157.5 C523.675,157.225,525.475,154.975,528.5,152.5 C531.525,150.025,535.125,148.225,536.5,148.5 M110,149 C108.9,149,105.075,150.575,101.5,152.5 C97.925,154.425,92.525,158.925,89.5,162.5 C86.475,166.075,83.1,170.8,82,173 C80.9,175.2,79.55,178.575,79,180.5 C78.45,182.425,78.675,185.575,79.5,187.5 C80.447,189.711,82.658,191.368,85.5,192 C87.975,192.55,92.475,191.875,95.5,190.5 C98.525,189.125,104.15,185.075,108,181.5 C111.85,177.925,115.9,173.425,117,171.5 C118.1,169.575,119.45,166.2,120,164 C120.55,161.8,120.55,158.425,120,156.5 C119.45,154.575,117.425,152.1,115.5,151 C113.575,149.9,111.1,149,110,149 M489,152 C489.55,152,490.225,153.35,490.5,155 C490.775,156.65,490.1,159.8,489,162 C487.9,164.2,483.625,168.925,479.5,172.5 C474.891,176.495,468.917,179.964,464,181.5 L456,184 L459.5,178 C461.425,174.7,465.475,169.525,468.5,166.5 C471.525,163.475,477.15,158.975,481,156.5 C484.85,154.025,488.45,152,489,152 M252,156 C252.55,156,253.225,157.125,253.5,158.5 C253.775,159.875,252.65,163.475,251,166.5 C249.35,169.525,245.75,174.025,243,176.5 C240.25,178.975,234.625,182.125,230.5,183.5 C226.375,184.875,223.225,185.775,223.5,185.5 C223.775,185.225,224.675,183.425,225.5,181.5 C226.325,179.575,228.575,175.75,230.5,173 C232.425,170.25,237.825,165.3,242.5,162 C247.175,158.7,251.45,156,252,156 M111.5,159 C112.325,159,112.775,160.575,112.5,162.5 C112.225,164.425,111.1,167.8,110,170 C108.9,172.2,105.3,176.025,102,178.5 C98.7,180.975,94.65,183.225,93,183.5 C91.35,183.775,89.55,183.325,89,182.5 C88.45,181.675,88.675,178.975,89.5,176.5 C90.325,174.025,92.125,170.425,93.5,168.5 C94.875,166.575,96.9,164.775,98,164.5 C99.1,164.225,102.25,162.875,105,161.5 C107.75,160.125,110.675,159,111.5,159 M408.5,191 C408.775,191,407.425,195.5,405.5,201 C403.575,206.5,400.65,213.7,399,217 C397.35,220.3,393.75,224.8,391,227 C388.25,229.2,383.975,231.9,381.5,233 C379.025,234.1,375.2,234.775,373,234.5 C370.8,234.225,368.325,233.1,367.5,232 C366.675,230.9,366.225,228.875,366.5,227.5 C366.775,226.125,368.575,222.75,370.5,220 C372.425,217.25,377.15,212.3,381,209 C384.85,205.7,391.15,201.2,395,199 C398.85,196.8,403.35,194.1,405,193 C406.65,191.9,408.225,191,408.5,191 "
     fill="rgb(241, 177, 193)"
     stroke="none"
     fill-rule="evenodd"
     id="path6"
     style="fill:#000000" />
  <path
     d="M188.5,88 C186.025,87.45,181.975,87.225,179.5,87.5 C177.025,87.775,170.275,88.675,164.5,89.5 C158.725,90.325,148.6,92.8,142,95 C135.4,97.2,124.375,101.7,117.5,105 C110.625,108.3,100.05,114.15,94,118 C87.95,121.85,78.275,129.05,72.5,134 C66.725,138.95,58.4,147.5,54,153 C49.6,158.5,43.75,166.825,41,171.5 C38.25,176.175,34.425,183.825,32.5,188.5 C30.575,193.175,28.55,198.8,28,201 C27.45,203.2,26.55,208.15,26,212 C25.45,215.85,25.225,221.025,25.5,223.5 C25.775,225.975,26.675,230.475,27.5,233.5 C28.325,236.525,30.8,241.475,33,244.5 C35.2,247.525,38.575,250.9,40.5,252 C42.425,253.1,45.8,254.45,48,255 C50.2,255.55,56.275,256.225,61.5,256.5 C66.725,256.775,75.05,256.55,80,256 C84.95,255.45,93.05,254.1,98,253 C102.95,251.9,112.175,249.425,118.5,247.5 C124.825,245.575,136.075,241.3,143.5,238 C150.925,234.7,163.075,228.175,170.5,223.5 C178.478,218.477,184.614,213.568,185.5,211.5 C186.325,209.575,186.775,206.875,186.5,205.5 C186.154,203.768,184.771,203.154,182,203.5 C179.8,203.775,176.65,205.125,175,206.5 C173.35,207.875,168.625,211.25,164.5,214 C160.375,216.75,154.3,220.35,151,222 C147.7,223.65,140.725,226.8,135.5,229 C130.275,231.2,121.95,234.35,117,236 C112.05,237.65,103.95,239.9,99,241 C94.05,242.1,84.375,243.225,77.5,243.5 C69.888,243.804,62.654,243.022,59,241.5 C55.7,240.125,51.65,237.425,50,235.5 C48.35,233.575,46.325,230.425,45.5,228.5 C44.675,226.575,43.775,220.95,43.5,216 C43.218,210.923,44.308,203.077,46,198 C47.65,193.05,51.7,184.5,55,179 C58.3,173.5,65.5,164.05,71,158 C76.5,151.95,84.6,144.075,89,140.5 C93.4,136.925,101.05,131.3,106,128 C110.95,124.7,117.7,120.65,121,119 C124.3,117.35,131.5,114.2,137,112 C142.5,109.8,150.825,106.875,155.5,105.5 C160.175,104.125,168.275,102.325,173.5,101.5 C178.725,100.675,185.7,100.225,189,100.5 L195,101 L196,97.5 C196.55,95.575,196.1,92.875,195,91.5 C193.9,90.125,190.975,88.55,188.5,88 M392.5,98 C391.675,98,388.75,99.125,386,100.5 C383.25,101.875,366.6,104.8,349,107 C331.4,109.2,314.075,111.9,310.5,113 C306.925,114.1,303.55,115.675,303,116.5 C302.45,117.325,302.675,118.9,303.5,120 C304.325,121.1,307.7,121.775,311,121.5 C314.3,121.225,319.25,120.55,322,120 C324.75,119.45,333.525,118.325,341.5,117.5 C349.475,116.675,358.025,115.775,360.5,115.5 C362.975,115.225,367.7,114.775,371,114.5 L377,114 L368,130.5 C363.05,139.575,357.65,149.7,356,153 C354.35,156.3,351.2,162.825,349,167.5 C346.8,172.175,342.975,180.725,340.5,186.5 C338.025,192.275,335.1,199.7,334,203 C332.9,206.3,332.45,209.9,333,211 C333.55,212.1,335.8,213.225,338,213.5 C340.667,213.833,342.667,213,344,211 C345.1,209.35,350.5,197.2,356,184 C361.5,170.8,368.025,155.95,370.5,151 C372.975,146.05,378.375,136.15,382.5,129 C386.625,121.85,391.575,115.1,393.5,114 C395.425,112.9,403.975,111.775,412.5,111.5 C421.025,111.225,430.025,110.775,432.5,110.5 C434.975,110.225,441.725,110.45,447.5,111 C453.275,111.55,458.675,111.55,459.5,111 C460.325,110.45,461.45,108.875,462,107.5 C462.567,106.083,461.917,104.133,460.5,103 C459.122,101.897,449.25,100.776,438.5,100.5 C427.775,100.225,414.95,100.225,410,100.5 C405.05,100.775,399.425,100.325,397.5,99.5 C395.575,98.675,393.325,98,392.5,98 M541,140.5 C539.9,140.225,536.3,140.9,533,142 C529.7,143.1,524.75,146.025,522,148.5 C519.25,150.975,515.425,155.475,513.5,158.5 C511.575,161.525,509.325,166.475,508.5,169.5 C507.675,172.525,507.225,177.025,507.5,179.5 C507.775,181.975,509.125,185.125,510.5,186.5 C511.875,187.875,515.25,189.225,518,189.5 C520.75,189.775,525.925,188.875,529.5,187.5 C533.075,186.125,541.175,182.075,547.5,178.5 C553.825,174.925,561.25,169.975,564,167.5 C566.75,165.025,569.225,162.1,569.5,161 C569.843,159.628,568.745,159.314,566,160 C563.8,160.55,559.3,162.8,556,165 C552.7,167.2,546.625,170.8,542.5,173 C538.375,175.2,532.525,177.9,529.5,179 C526.475,180.1,522.875,180.325,521.5,179.5 C520.125,178.675,518.775,175.975,518.5,173.5 C518.169,170.524,519.016,168.154,521,166.5 C522.65,165.125,527.375,163.1,531.5,162 C535.625,160.9,541.025,158.65,543.5,157 C545.975,155.35,548.45,152.425,549,150.5 C549.55,148.575,549.55,146.325,549,145.5 C548.45,144.675,546.875,143.325,545.5,142.5 C544.125,141.675,542.1,140.775,541,140.5 M441,141 C439.9,141,434.95,144.6,430,149 C425.05,153.4,415.825,161.275,409.5,166.5 C403.175,171.725,396.2,177.35,394,179 L390,182 L396,171 C399.3,164.95,403.575,157.75,405.5,155 C407.425,152.25,409.225,149.55,409.5,149 C409.775,148.45,408.425,147.775,406.5,147.5 C403.844,147.121,401.795,148.447,398,153 C395.25,156.3,390.75,162.825,388,167.5 C385.25,172.175,382.325,178.025,381.5,180.5 C380.675,182.975,380.225,185.9,380.5,187 C380.783,188.133,382.733,188.783,385,188.5 C387.2,188.225,393.5,185.3,399,182 C404.5,178.7,412.825,172.85,417.5,169 C422.175,165.15,426.45,161.775,427,161.5 C427.55,161.225,425.3,165.5,422,171 C418.7,176.5,414.425,181.9,412.5,183 C410.575,184.1,404.275,187.25,398.5,190 C392.725,192.75,383.95,197.925,379,201.5 C374.05,205.075,367.75,210.475,365,213.5 C362.25,216.525,358.875,221.25,357.5,224 C356.125,226.75,355.225,230.8,355.5,233 C355.833,235.667,357.333,237.667,360,239 C362.2,240.1,366.025,241.225,368.5,241.5 C370.975,241.775,375.475,241.325,378.5,240.5 C381.525,239.675,387.6,236.75,392,234 C396.525,231.172,401.955,226.177,404.5,222.5 C406.975,218.925,411.25,210.6,414,204 C416.75,197.4,420.35,189.975,422,187.5 C424.001,184.498,428.829,181.169,436.5,177.5 C442.825,174.475,449.35,171.1,451,170 L454,168 L450,175 C447.8,178.85,444.425,182.9,442.5,184 C440.2,185.315,439.171,187.028,439.5,189 C439.775,190.65,438.2,195.6,436,200 C433.8,204.4,430.65,210.7,429,214 C427.35,217.3,425.775,220.675,425.5,221.5 C425.225,222.325,426.125,223.45,427.5,224 C428.875,224.55,431.35,224.325,433,223.5 C434.65,222.675,438.475,217.5,441.5,212 C444.525,206.5,448.35,199.75,450,197 C451.989,193.685,454.685,191.494,458,190.5 C460.75,189.675,465.7,188.1,469,187 C472.3,185.9,478.15,182.75,482,180 C485.85,177.25,491.25,171.85,494,168 C496.75,164.15,499.675,159.425,500.5,157.5 C501.325,155.575,502.225,152.875,502.5,151.5 C502.775,150.125,502.1,147.425,501,145.5 C499.9,143.575,497.875,141.775,496.5,141.5 C495.125,141.225,490.85,142.8,487,145 C483.15,147.2,477.75,150.8,475,153 L470,157 L473.5,150 C475.425,146.15,476.775,142.55,476.5,142 C476.225,141.45,474.425,141.225,472.5,141.5 C470.292,141.815,467.708,144.03,465.5,147.5 C463.575,150.525,460.425,155.025,458.5,157.5 C456.487,160.088,450.538,164.125,444.5,167 C438.725,169.75,432.65,172.9,431,174 C428.713,175.525,429.188,173.861,433,167 C435.75,162.05,439.8,155.075,442,151.5 C444.671,147.159,445.502,144.336,444.5,143 C443.675,141.9,442.1,141,441,141 M318,144 C317.45,144,314.525,146.25,311.5,149 C308.475,151.75,304.65,155.35,303,157 C301.35,158.65,297.075,162.475,293.5,165.5 C289.925,168.525,284.525,172.8,281.5,175 L276,179 L281.5,169 C284.525,163.5,288.35,156.975,290,154.5 C291.65,152.025,292.775,148.875,292.5,147.5 C292.18,145.9,290.919,145.18,289,145.5 C287.35,145.775,283.975,148.7,281.5,152 C279.025,155.3,275.425,161.15,273.5,165 C271.575,168.85,268.875,175.15,267.5,179 C266.125,182.85,265.225,187.125,265.5,188.5 C265.859,190.294,266.989,190.718,269.5,190 C271.425,189.45,277.05,186.075,282,182.5 C286.95,178.925,291.9,175.325,293,174.5 C294.562,173.328,294.781,173.876,294,177 C293.45,179.2,293.225,182.35,293.5,184 C293.775,185.65,295.125,187.225,296.5,187.5 C297.875,187.775,302.375,186.425,306.5,184.5 C310.625,182.575,318.275,178.525,323.5,175.5 C328.725,172.475,334.575,168.425,336.5,166.5 C338.425,164.575,339.775,162.55,339.5,162 C339.225,161.45,336.975,161.45,334.5,162 C332.025,162.55,327.525,164.575,324.5,166.5 C321.475,168.425,316.75,171.125,314,172.5 C311.25,173.875,308.1,175.45,307,176 C305.9,176.55,306.8,173.175,309,168.5 C311.2,163.825,314.8,157.075,317,153.5 C319.2,149.925,320.55,146.325,320,145.5 C319.45,144.675,318.55,144,318,144 M201.5,145 C201.225,145,198.075,146.575,194.5,148.5 C190.925,150.425,185.3,154.475,182,157.5 L176,163 L177.5,156 C178.651,150.627,178.419,148.768,176.5,148 C175.125,147.45,171.75,147.9,169,149 C166.25,150.1,160.85,153.25,157,156 C153.15,158.75,148.875,162.125,147.5,163.5 C146.125,164.875,144.55,166.225,144,166.5 C143.45,166.775,144.35,163.625,146,159.5 C147.65,155.375,148.775,151.325,148.5,150.5 C148.225,149.675,147.325,148.775,146.5,148.5 C145.675,148.225,143.875,149.125,142.5,150.5 C141.125,151.875,137.75,157.725,135,163.5 C132.25,169.275,128.425,176.925,126.5,180.5 C124.575,184.075,122.775,188.125,122.5,189.5 C122.116,191.419,122.813,191.884,125.5,191.5 C127.624,191.197,133.128,186.675,139.5,180 C145.275,173.95,152.925,166.975,156.5,164.5 C160.075,162.025,164.125,159.325,165.5,158.5 C167.25,157.45,166.5,160.749,163,169.5 C160.25,176.375,157.55,183.125,157,184.5 C156.433,185.917,156.867,187.217,158,187.5 C159.1,187.775,164.95,182.825,171,176.5 C177.05,170.175,184.7,163.2,188,161 L194,157 L192.5,164.5 C191.675,168.625,190.325,174.475,189.5,177.5 L188,183 L191,183.5 C192.65,183.775,198.05,181.975,203,179.5 C207.95,177.025,214.25,173.65,217,172 L222,169 L217.5,177 C215.025,181.4,211.65,185.9,210,187 C208.236,188.176,207.206,190.236,207.5,192 C207.775,193.65,205.525,199.95,202.5,206 C199.475,212.05,196.325,218.575,195.5,220.5 C194.565,222.681,194.754,224.377,196,225 C197.1,225.55,199.575,224.875,201.5,223.5 C203.425,222.125,206.8,217.85,209,214 C211.2,210.15,213.9,204.975,215,202.5 C216.1,200.025,218.35,196.65,220,195 C221.65,193.35,226.15,191.325,230,190.5 C233.85,189.675,239.925,186.975,243.5,184.5 C247.075,182.025,251.8,177.75,254,175 C256.2,172.25,259.35,167.3,261,164 C262.65,160.7,263.775,155.75,263.5,153 C263.179,149.787,261.928,147.464,260,146.5 C257.832,145.416,255.058,146.11,250,149 C246.15,151.2,241.65,154.35,240,156 L237,159 L239,153 C240.1,149.7,240.775,146.55,240.5,146 C240.225,145.45,238.65,145.225,237,145.5 C235.172,145.805,232.047,149.124,229,154 L224,162 L213,167 C206.95,169.75,201.775,172.225,201.5,172.5 C201.225,172.775,201.225,170.525,201.5,167.5 C201.775,164.475,203.125,158.625,204.5,154.5 C206.5,148.5,206.5,146.8,204.5,146 C203.125,145.45,201.775,145,201.5,145 M536.5,148.5 C538.435,148.887,538.548,149.565,537,151.5 C535.9,152.875,532.975,154.9,530.5,156 C528.025,157.1,525.325,157.775,524.5,157.5 C523.675,157.225,525.475,154.975,528.5,152.5 C531.525,150.025,535.125,148.225,536.5,148.5 M110,149 C108.9,149,105.075,150.575,101.5,152.5 C97.925,154.425,92.525,158.925,89.5,162.5 C86.475,166.075,83.1,170.8,82,173 C80.9,175.2,79.55,178.575,79,180.5 C78.45,182.425,78.675,185.575,79.5,187.5 C80.447,189.711,82.658,191.368,85.5,192 C87.975,192.55,92.475,191.875,95.5,190.5 C98.525,189.125,104.15,185.075,108,181.5 C111.85,177.925,115.9,173.425,117,171.5 C118.1,169.575,119.45,166.2,120,164 C120.55,161.8,120.55,158.425,120,156.5 C119.45,154.575,117.425,152.1,115.5,151 C113.575,149.9,111.1,149,110,149 M489,152 C489.55,152,490.225,153.35,490.5,155 C490.775,156.65,490.1,159.8,489,162 C487.9,164.2,483.625,168.925,479.5,172.5 C474.891,176.495,468.917,179.964,464,181.5 L456,184 L459.5,178 C461.425,174.7,465.475,169.525,468.5,166.5 C471.525,163.475,477.15,158.975,481,156.5 C484.85,154.025,488.45,152,489,152 M252,156 C252.55,156,253.225,157.125,253.5,158.5 C253.775,159.875,252.65,163.475,251,166.5 C249.35,169.525,245.75,174.025,243,176.5 C240.25,178.975,234.625,182.125,230.5,183.5 C226.375,184.875,223.225,185.775,223.5,185.5 C223.775,185.225,224.675,183.425,225.5,181.5 C226.325,179.575,228.575,175.75,230.5,173 C232.425,170.25,237.825,165.3,242.5,162 C247.175,158.7,251.45,156,252,156 M111.5,159 C112.325,159,112.775,160.575,112.5,162.5 C112.225,164.425,111.1,167.8,110,170 C108.9,172.2,105.3,176.025,102,178.5 C98.7,180.975,94.65,183.225,93,183.5 C91.35,183.775,89.55,183.325,89,182.5 C88.45,181.675,88.675,178.975,89.5,176.5 C90.325,174.025,92.125,170.425,93.5,168.5 C94.875,166.575,96.9,164.775,98,164.5 C99.1,164.225,102.25,162.875,105,161.5 C107.75,160.125,110.675,159,111.5,159 M408.5,191 C408.775,191,407.425,195.5,405.5,201 C403.575,206.5,400.65,213.7,399,217 C397.35,220.3,393.75,224.8,391,227 C388.25,229.2,383.975,231.9,381.5,233 C379.025,234.1,375.2,234.775,373,234.5 C370.8,234.225,368.325,233.1,367.5,232 C366.675,230.9,366.225,228.875,366.5,227.5 C366.775,226.125,368.575,222.75,370.5,220 C372.425,217.25,377.15,212.3,381,209 C384.85,205.7,391.15,201.2,395,199 C398.85,196.8,403.35,194.1,405,193 C406.65,191.9,408.225,191,408.5,191 "
     fill="rgb(255, 255, 255)"
     stroke="none"
     fill-rule="evenodd"
     id="path8"
     style="fill:none" />
  <metadata
     id="metadata716">
    <rdf:RDF>
      <cc:Work
         rdf:about="">
        <dc:title>undefined</dc:title>
      </cc:Work>
    </rdf:RDF>
  </metadata>
</svg>
