<?xml version="1.0" encoding="UTF-8" standalone="no"?>
<svg
   id="svg5546"
   style="display:block"
   preserveAspectRatio="xMidYMid meet"
   fit=""
   xml:space="preserve"
   viewBox="0 0 500 500"
   height="500"
   width="500"
   y="0px"
   x="0px"
   version="1.1"
   sodipodi:docname="jeffy-LIVE-inkscp.svg"
   inkscape:version="1.1 (c4e8f9ed74, 2021-05-24)"
   xmlns:inkscape="http://www.inkscape.org/namespaces/inkscape"
   xmlns:sodipodi="http://sodipodi.sourceforge.net/DTD/sodipodi-0.dtd"
   xmlns:xlink="http://www.w3.org/1999/xlink"
   xmlns="http://www.w3.org/2000/svg"
   xmlns:svg="http://www.w3.org/2000/svg"
   xmlns:rdf="http://www.w3.org/1999/02/22-rdf-syntax-ns#"
   xmlns:cc="http://creativecommons.org/ns#"
   xmlns:dc="http://purl.org/dc/elements/1.1/"><sodipodi:namedview
     pagecolor="#ffffff"
     bordercolor="#666666"
     borderopacity="1"
     objecttolerance="10"
     gridtolerance="10"
     guidetolerance="10"
     inkscape:pageopacity="0"
     inkscape:pageshadow="2"
     inkscape:window-width="1920"
     inkscape:window-height="1011"
     id="namedview46"
     showgrid="false"
     inkscape:zoom="3.2645352"
     inkscape:cx="-293.45678"
     inkscape:cy="57.588596"
     inkscape:window-x="1920"
     inkscape:window-y="32"
     inkscape:window-maximized="1"
     inkscape:current-layer="g1401"
     inkscape:pagecheckerboard="0"
     inkscape:object-paths="true"
     inkscape:snap-smooth-nodes="false"
     inkscape:object-nodes="false" /><metadata
     id="metadata5626"><rdf:RDF><cc:Work
         rdf:about=""><dc:format>image/svg+xml</dc:format><dc:type
           rdf:resource="http://purl.org/dc/dcmitype/StillImage" /><dc:creator><cc:Agent><dc:title>tactwork.c</dc:title></cc:Agent></dc:creator></cc:Work></rdf:RDF></metadata><defs
     id="defs5548"><linearGradient
       id="d"><stop
         id="stop5551"
         offset="0" /><stop
         id="stop5553"
         stop-opacity="0"
         offset="1" /></linearGradient><linearGradient
       id="a"><stop
         id="stop5556"
         offset="0" /><stop
         id="stop5558"
         stop-opacity="0"
         offset="1" /></linearGradient><linearGradient
       id="c"><stop
         id="stop5561"
         stop-color="#6687e7"
         offset="0" /><stop
         id="stop5563"
         stop-color="#4169e1"
         offset="1" /></linearGradient><linearGradient
       id="linearGradient5565"
       gradientUnits="userSpaceOnUse"
       xlink:href="#a"
       y2="79.837997"
       x2="81.170998"
       y1="63.205002"
       x1="64.667" /><clipPath
       id="clipPath5567"><rect
         id="rect5569"
         y="31.070999"
         x="27.857"
         ry="30"
         rx="30"
         height="60"
         width="60"
         style="fill:url(#b)" /></clipPath><radialGradient
       gradientTransform="translate(2.857,1.071)"
       gradientUnits="userSpaceOnUse"
       xlink:href="#c"
       id="b"
       fy="60"
       fx="55"
       r="30.5"
       cy="60"
       cx="55" /><linearGradient
       id="linearGradient5572"
       gradientUnits="userSpaceOnUse"
       xlink:href="#a"
       y2="79.265999"
       x2="80.268997"
       y1="51.118999"
       x1="64.017998" /><linearGradient
       id="linearGradient5574"
       gradientTransform="matrix(2.49,0,0,2.49,-42.782,-1335.017)"
       gradientUnits="userSpaceOnUse"
       xlink:href="#d"
       y2="938.15698"
       x2="83.75"
       y1="887.49298"
       x1="35.915001" /><radialGradient
       id="radialGradient5576"
       gradientTransform="translate(-0.177,852.362)"
       gradientUnits="userSpaceOnUse"
       xlink:href="#e"
       fy="60"
       fx="55"
       r="30.5"
       cy="60"
       cx="55" /><linearGradient
       id="e"><stop
         id="stop5579"
         stop-color="#6687e7"
         offset="0" /><stop
         id="stop5581"
         stop-color="#4169e1"
         offset="1" /></linearGradient><clipPath
       id="clipPath5583"><path
         id="path5585"
         d="m 55.154,29.993 c 16.62,0 30,13.38 30,30 0,16.62 -13.38,30 -30,30 -16.62,0 -30,-13.38 -30,-30 0,-16.62 13.38,-30 30,-30 z"
         style="fill:url(#f);stroke:#000000" /></clipPath><radialGradient
       gradientTransform="translate(0.154,-0.007)"
       gradientUnits="userSpaceOnUse"
       xlink:href="#e"
       id="f"
       fy="60"
       fx="55"
       r="30.5"
       cy="60"
       cx="55" /><clipPath
       id="clipPath5588"><path
         id="path5590"
         d="m 58.01,31.064 c 16.62,0 30,13.38 30,30 0,16.62 -13.38,30 -30,30 -16.62,0 -30,-13.38 -30,-30 0,-16.62 13.38,-30 30,-30 z"
         style="fill:url(#g);stroke:#000000" /></clipPath><radialGradient
       gradientTransform="translate(3.011,1.064)"
       gradientUnits="userSpaceOnUse"
       xlink:href="#e"
       id="g"
       fy="60"
       fx="55"
       r="30.5"
       cy="60"
       cx="55" /><linearGradient
       id="linearGradient5593"
       gradientTransform="matrix(2.49,0,0,2.49,17.951,-1260.201)"
       gradientUnits="userSpaceOnUse"
       xlink:href="#c"
       y2="824.67401"
       x2="-114.905"
       y1="823.26001"
       x1="-115.966" /><linearGradient
       id="linearGradient5595"
       gradientTransform="matrix(2.49,0,0,2.49,-42.782,-1335.017)"
       gradientUnits="userSpaceOnUse"
       xlink:href="#d"
       y2="938.15698"
       x2="83.75"
       y1="887.49298"
       x1="35.915001" /><linearGradient
       id="linearGradient5597"
       gradientUnits="userSpaceOnUse"
       xlink:href="#a"
       y2="79.265999"
       x2="80.268997"
       y1="51.118999"
       x1="64.017998" /><linearGradient
       id="linearGradient5599"
       gradientTransform="matrix(2.49,0,0,2.49,-42.782,-1335.017)"
       gradientUnits="userSpaceOnUse"
       xlink:href="#d"
       y2="938.15698"
       x2="83.75"
       y1="887.49298"
       x1="35.915001" /><linearGradient
       id="linearGradient5601"
       gradientUnits="userSpaceOnUse"
       xlink:href="#a"
       y2="79.265999"
       x2="80.268997"
       y1="51.118999"
       x1="64.017998" /><linearGradient
       id="linearGradient5603"
       gradientTransform="matrix(2.422,0,0,2.422,-56.389,-65.568)"
       gradientUnits="userSpaceOnUse"
       xlink:href="#a"
       y2="76.466003"
       x2="59.644001"
       y1="55.319"
       x1="24.297001" /><filter
       inkscape:collect="always"
       style="color-interpolation-filters:sRGB"
       id="filter29794"
       x="-0.020620824"
       y="-0.022048095"
       width="1.0412416"
       height="1.0440962"><feGaussianBlur
         inkscape:collect="always"
         stdDeviation="0.009302175"
         id="feGaussianBlur29796" /></filter><filter
       inkscape:collect="always"
       style="color-interpolation-filters:sRGB"
       id="filter29794-6"
       x="-0.020620824"
       y="-0.022048095"
       width="1.0412416"
       height="1.0440962"><feGaussianBlur
         inkscape:collect="always"
         stdDeviation="0.009302175"
         id="feGaussianBlur29796-7" /></filter></defs><g
     id="g1385"><path
       id="path4705"
       d="m 357.6443,161.57856 c 20.85099,27.40938 30.40397,58.089 21.95445,69.19865 -4.6552,-6.06084 -0.59767,-21.24106 -30.50503,-45.89176 -3.73138,-5.27288 4.29222,-13.36841 8.55018,-23.30493 z"
       class="mouth1"
       style="display:inline;fill:#f48fb1;fill-rule:evenodd" /><path
       id="path4707"
       d="m 352.15939,152.54674 c -17.0922,24.72393 -27.33473,65.01331 -12.5898,72.56089 l 33.55859,1.48866 c 0,0 5.39812,-5.74359 0.73126,-12.98005 -9.35745,-14.50639 -10.30613,-41.86461 -21.69927,-61.06832 z"
       class="mouth1"
       style="display:inline;fill:#80cbc4;fill-rule:evenodd" /><path
       d="m 193.89592,288.90201 c 9.453,-1.41701 38.93699,35.18999 27.02999,42.59699 -11.35499,7.065 -41.62399,8.98 -40.32199,-3.383 0.833,-7.92 -9.007,-23.954 -9.007,-23.954 z m 112.06799,5.961 c -0.847,12.19399 -3.986,34.38 1.51,35.97199 4.24,1.226 31.676,-3.79 31.676,-3.79 15.196,-4.79999 -12.478,-43.2 -12.578,-43.328 z"
       id="path4711"
       style="display:inline;fill:#00796b;stroke-width:0.242;stroke-linejoin:round" /><path
       style="display:inline;fill:#009688;fill-rule:evenodd"
       id="path4715"
       d="m 384.14791,130.01848 c -9.278,0.07 -20.688,4.06 -33.815,12.847 -44.52,4.55 -29.92,87.44 -44.676,97.91 -3.93,-2.156 -23.68,-22.468 -57.847,-28.912 -13.903,-2.12 -30.77,2.01 -46.393,9.176 -0.05,-0.05 -0.12,-0.08 -0.222,-0.07 -73.822,6.72 -104.989998,-16.803 -113.888001,-17.16 -15.313999,-2.27 55.744001,73.386 58.465001,80.69 0.27,-0.35 0.814,-0.865 1.525,-1.482 -10.924,44.292 31.765,11.566 40.935,28.116 17.524,11.524 46.01,12.426 58.5,10.478 18.72,-2.92 28.108,-11.182 28.108,-11.182 47.557,40.407 45.187,-22.993 57.29,-37.405 -1.172,1.92 27.873,-49.274 27.56,-79.87 0,0 45.288,10.015 51.17,6.886 0,0 34.09,-35.627 -2.385,-52.71 -3.997,-11.01 -12.4,-17.4 -24.328,-17.31 z m -238.375,154.48 c -0.27,0.35 -0.306,0.554 -0.024,0.562 0.146,-0.05 0.14,-0.25 0.026,-0.562 z" /><path
       id="path4717"
       d="m 396.32991,149.572 c 0,5.517 -4.782,9.99 -10.68,9.99 -5.9,0 -10.683,-4.473 -10.683,-9.99 0,-5.517 4.78,-9.99 10.68,-9.99 5.9,0 10.68,4.473 10.68,9.99 z"
       style="display:inline;fill:#333333" /><path
       id="path4719"
       d="m 382.56391,145.608 c -1.25,0 -2.26,0.934 -2.26,2.086 0,1.152 1.01,2.086 2.26,2.086 1.248,0 2.26,-0.934 2.26,-2.086 0,-1.152 -1.012,-2.086 -2.26,-2.086 z m 5.04,7.648 c -1.92,0 -3.476,0.934 -3.476,2.086 0,1.152 1.556,2.086 3.477,2.086 1.92,0 3.478,-0.934 3.478,-2.086 0,-1.152 -1.558,-2.086 -3.478,-2.086 z"
       style="display:inline;fill:#ffffff" /><path
       d="m 188.97292,297.146 c 0,0 4.71,36.34701 -3.59,41.055 -11.734,6.65501 -48.315,-7.64999 -43.706,-19.42699 2.95,-7.54501 4.42,-35.44601 4.42,-35.44601 15.772,-31.548 30.626,-17.30599 42.87399,13.817 z m 90.65499,-16.813 c -9.876,20.95 -9.16,58.57 6.03,60.28701 16.28,1.83999 35.13,3.15499 32.677,-12.764 -1.28,-8.308 -1.152,-31.445 0.57,-30.03001 -6.07,-27.03999 -31.268,-31.35699 -39.278,-17.493 z"
       id="path4721"
       style="display:inline;fill:#00897b;stroke-width:0.242;stroke-linejoin:round" /></g><g
     id="g38963"
     transform="translate(-546.84667,-150.20009)"><path
       id="path39046"
       style="display:inline;fill:#000000;fill-opacity:1;stroke:none;stroke-width:1;stroke-linecap:round;stroke-linejoin:round;stroke-miterlimit:4;stroke-dasharray:none;stroke-dashoffset:0;stroke-opacity:0.917492;paint-order:stroke fill markers;filter:url(#filter29794)"
       d="m 58.44196,-38.815748 c -5.9,0 -10.67969,4.471282 -10.67969,9.988282 0,5.517 4.78164,9.990234 10.68164,9.990234 5.898,0 10.67969,-4.473234 10.67969,-9.990234 h -0.002 c 0,-5.517 -4.77969,-9.988282 -10.67969,-9.988282 z m -3.08398,6.025391 c 1.248,0 2.25976,0.933938 2.25976,2.085938 0,1.152 -1.01176,2.085937 -2.25976,2.085937 -1.25,0 -2.25977,-0.933937 -2.25977,-2.085937 0,-1.152 1.00977,-2.085938 2.25977,-2.085938 z m 5.04101,7.648438 c 1.92,0 3.47852,0.933937 3.47852,2.085937 0,1.152 -1.55852,2.085938 -3.47852,2.085938 -1.921,0 -3.47656,-0.933938 -3.47656,-2.085938 0,-1.152 1.55656,-2.085937 3.47656,-2.085937 z" /><path
       id="path39048"
       style="display:inline;fill:none;fill-rule:evenodd;stroke:#000000;stroke-width:0.5;stroke-linecap:round;stroke-linejoin:round;stroke-miterlimit:4;stroke-dasharray:none;stroke-opacity:1;paint-order:stroke fill markers"
       d="m 51.90696,5.56295 c 12.81393,2.8491 22.49516,9.2227 31.74794,16.07835 m 0,0 c 0,0 34.09024,-35.62599 -2.38476,-52.70899 -3.997,-11.01 -12.40013,-17.40055 -24.32813,-17.31055 l -5e-5,-0.002 c -9.278,0.07 -20.68745,4.06066 -33.81445,12.84766 -44.52,4.55 -29.91978,87.44015 -44.67578,97.91015 -3.93,-2.156 -23.68066,-22.46811 -57.84766,-28.91211 -13.903,-2.12 -30.76958,2.00978 -46.39258,9.17578 -0.05,-0.05 -0.12065,-0.0803 -0.22265,-0.0703 -73.822,6.72 -104.98872,-16.80315 -113.88672,-17.16015 -15.314,-2.27 55.74384,73.38545 58.46484,80.68945 -0.27,0.35 -0.30544,0.5545 -0.0234,0.5625 0.146,-0.05 0.13939,-0.2505 0.0254,-0.5625 0.0471,-0.061 0.2025,-0.18716 0.26563,-0.25781 -0.14239,2.58284 -1.56381,27.37318 -4.36328,34.5332 -4.609,11.777 31.97303,26.08079 43.70703,19.42578 4.68638,-2.65825 5.18869,-15.32431 4.76953,-25.91797 17.61953,10.40491 44.52829,11.20943 56.57813,9.33008 14.09873,-2.19916 22.8828,-7.4155 26.37109,-9.86328 -0.15096,14.85054 3.76502,27.87755 12.55469,28.87109 16.28,1.83999 35.13073,3.15532 32.67773,-12.76367 -0.59066,-3.83376 -0.86514,-10.79864 -0.83789,-17.07813 6.2974,-12.5968 8.80872,-30.81869 14.63281,-37.7539 -1.172,1.92 21.15928,-21.36591 20.84628,-51.96191"
       sodipodi:nodetypes="cccccccccccccccccccccccccc" /><path
       id="path39050"
       style="display:inline;fill:none;fill-opacity:1;stroke:#000000;stroke-width:0.5;stroke-linecap:round;stroke-linejoin:round;stroke-miterlimit:4;stroke-dasharray:none;stroke-opacity:1;paint-order:normal"
       d="m -0.21399,105.95029 c -2.79885,8.24729 -5.36636,19.18281 -9.40748,27.26633 -0.0272,6.27949 0.24723,13.24437 0.83789,17.07813 0.13279,0.86176 0.17578,1.65066 0.1875,2.41406 9.24434,-1.15225 20.62695,-3.22461 20.62695,-3.22461 14.79232,-4.67247 -10.76982,-41.47931 -12.24486,-43.53391 z m -136.75123,28.77024 c 0.34635,8.7534 0.024,18.83527 -2.72852,23.60352 9.34027,2.82513 25.78261,0.41621 33.50196,-4.38672 2.91657,-1.81432 3.33895,-5.38651 2.1914,-9.7168 -11.16726,-1.09899 -23.41006,-3.85759 -32.96484,-9.5 z"
       sodipodi:nodetypes="ccscccccccc" /><path
       id="path39052"
       style="display:inline;fill:none;fill-rule:evenodd;stroke:#000000;stroke-width:0.58561;stroke-linecap:round;stroke-linejoin:round;stroke-miterlimit:4;stroke-dasharray:none;stroke-opacity:1"
       class="mouth1"
       inkscape:transform-center-x="-21.730039"
       inkscape:transform-center-y="10.020048"
       d="m 33.73782,-1.14082 c -2.88385,0.19534 -5.73074,0.93794 -8.32763,2.26418 -2.76693,1.41085 -5.22968,3.45049 -7.20389,5.92414 -1.93747,2.4659 -3.37886,5.35229 -4.21002,8.43309 -0.81127,3.0863 -1.01066,6.34479 -0.57783,9.5228 0.45731,3.17415 1.53342,6.24848 3.15981,8.97566 1.64149,2.71379 3.81227,5.06757 6.34789,6.8718 2.5443,1.78486 5.43343,3.01246 8.44093,3.5792 1.43167,0.25985 2.88485,0.36466 4.33405,0.32646 1.45192,0.0715 2.90822,0.067 4.34299,0.0306 8.41624,-0.38555 16.71138,-2.14221 24.84347,-4.33236 1.33587,-0.34076 2.66608,-0.72711 3.84346,-1.49345 4.32322,-2.4869 8.40273,-5.87298 10.74781,-10.51671 1.42005,-2.80537 1.83768,-6.25006 0.67378,-9.2518 -0.25626,-0.59581 -0.98197,-0.83525 -1.45247,-1.2587 C 72.52796,13.5723 65.87198,9.88773 58.79721,7.4504 56.01993,6.5135 53.14958,5.79104 50.24835,5.426 45.91705,0.95058 39.79784,-1.50747 33.73782,-1.14084 Z" /><g
       id="g39044"
       style="display:block;stroke:#000000;stroke-width:3;stroke-linecap:round;stroke-linejoin:round;stroke-miterlimit:4;stroke-dasharray:none;stroke-opacity:1"
       transform="translate(374.93035,576.00345)"><path
         id="path1395"
         style="display:inline;fill:none;fill-opacity:1;stroke:#000000;stroke-width:0.836326;stroke-linecap:round;stroke-linejoin:round;stroke-miterlimit:4;stroke-dasharray:none;stroke-dashoffset:0;stroke-opacity:1;paint-order:stroke fill markers;filter:url(#filter29794-6)"
         d="m -161.19922,-10.617188 c -5.9,0 -10.67969,4.4712818 -10.67969,9.98828175 0,5.51699995 4.78164,9.99023435 10.68164,9.99023435 5.898,0 10.67969,-4.4732344 10.67969,-9.99023435 h -0.002 c 0,-5.51699995 -4.77969,-9.98828175 -10.67969,-9.98828175 z m -3.08398,6.0253911 c 1.248,0 2.25976,0.9339375 2.25976,2.0859375 0,1.152 -1.01176,2.08593752 -2.25976,2.08593752 -1.25,0 -2.25977,-0.93393752 -2.25977,-2.08593752 0,-1.152 1.00977,-2.0859375 2.25977,-2.0859375 z m 5.04101,7.6484375 c 1.92,0 3.47852,0.9339375 3.47852,2.0859375 0,1.152 -1.55852,2.0859375 -3.47852,2.0859375 -4.79075,-0.1684151 -3.38983,-4.1100524 0,-4.171875 z"
         transform="matrix(1.1957057,0,0,1.1957057,580.10734,148.93661)"
         sodipodi:nodetypes="cssccccssssscscc" /><path
         id="path1393"
         style="display:inline;fill:none;fill-rule:evenodd;stroke:#000000;stroke-width:1;stroke-linecap:round;stroke-linejoin:round;stroke-miterlimit:4;stroke-dasharray:none;stroke-opacity:1;paint-order:stroke fill markers"
         d="m 379.11245,183.9616 c 12.81393,2.8491 22.49516,9.2227 31.74794,16.07835 m 0,0 c 0,0 34.09024,-35.62599 -2.38476,-52.70899 -3.997,-11.01 -12.40013,-17.40055 -24.32813,-17.31055 l -5e-5,-0.002 c -9.278,0.07 -20.68745,4.06066 -33.81445,12.84766 -44.52,4.55 -29.91978,87.44015 -44.67578,97.91015 -3.93,-2.156 -23.68066,-22.46811 -57.84766,-28.91211 -13.903,-2.12 -30.76958,2.00978 -46.39258,9.17578 -0.05,-0.05 -0.12065,-0.0803 -0.22265,-0.0703 -73.822,6.72 -104.98872,-16.80315 -113.88672,-17.16015 -15.314,-2.27 55.74384,73.38545 58.46484,80.68945 -0.27,0.35 -0.30544,0.5545 -0.0234,0.5625 0.146,-0.05 0.13939,-0.2505 0.0254,-0.5625 0.0471,-0.061 0.2025,-0.18716 0.26563,-0.25781 -0.14239,2.58284 -1.56381,27.37318 -4.36328,34.5332 -4.609,11.777 31.97303,26.08079 43.70703,19.42578 4.68638,-2.65825 5.18869,-15.32431 4.76953,-25.91797 17.61953,10.40491 44.52829,11.20943 56.57813,9.33008 14.09873,-2.19916 22.8828,-7.4155 26.37109,-9.86328 -0.15096,14.85054 3.76502,27.87755 12.55469,28.87109 16.28,1.83999 35.13073,3.15532 32.67773,-12.76367 -0.59066,-3.83376 -0.86514,-10.79864 -0.83789,-17.07813 6.2974,-12.5968 8.80872,-30.81869 14.63281,-37.7539 -1.172,1.92 21.15928,-21.36591 20.84628,-51.96191"
         sodipodi:nodetypes="cccccccccccccccccccccccccc" /><path
         id="path1391-3"
         style="display:inline;fill:none;fill-opacity:1;stroke:#000000;stroke-width:1;stroke-linecap:round;stroke-linejoin:round;stroke-miterlimit:4;stroke-dasharray:none;stroke-opacity:1;paint-order:normal"
         d="m 326.9915,284.34894 c -2.79885,8.24729 -5.36636,19.18281 -9.40748,27.26633 -0.0272,6.27949 0.24723,13.24437 0.83789,17.07813 0.13279,0.86176 0.17578,1.65066 0.1875,2.41406 9.24434,-1.15225 20.62695,-3.22461 20.62695,-3.22461 14.79232,-4.67247 -10.76982,-41.47931 -12.24486,-43.53391 z m -136.75123,28.77024 c 0.34635,8.7534 0.024,18.83527 -2.72852,23.60352 9.34027,2.82513 25.78261,0.41621 33.50196,-4.38672 2.91657,-1.81432 3.33895,-5.38651 2.1914,-9.7168 -11.16726,-1.09899 -23.41006,-3.85759 -32.96484,-9.5 z"
         sodipodi:nodetypes="ccscccccccc" /><path
         id="path1389"
         style="display:inline;fill:none;fill-rule:evenodd;stroke:#000000;stroke-width:1;stroke-linecap:round;stroke-linejoin:round;stroke-miterlimit:4;stroke-dasharray:none;stroke-opacity:1"
         class="mouth1"
         inkscape:transform-center-x="-21.730039"
         inkscape:transform-center-y="10.020048"
         d="m 360.94331,177.25783 c -2.88385,0.19534 -5.73074,0.93794 -8.32763,2.26418 -2.76693,1.41085 -5.22968,3.45049 -7.20389,5.92414 -1.93747,2.4659 -3.37886,5.35229 -4.21002,8.43309 -0.81127,3.0863 -1.01066,6.34479 -0.57783,9.5228 0.45731,3.17415 1.53342,6.24848 3.15981,8.97566 1.64149,2.71379 3.81227,5.06757 6.34789,6.8718 2.5443,1.78486 5.43343,3.01246 8.44093,3.5792 1.43167,0.25985 2.88485,0.36466 4.33405,0.32646 1.45192,0.0715 2.90822,0.067 4.34299,0.0306 8.41624,-0.38555 16.71138,-2.14221 24.84347,-4.33236 1.33587,-0.34076 2.66608,-0.72711 3.84346,-1.49345 4.32322,-2.4869 8.40273,-5.87298 10.74781,-10.51671 1.42005,-2.80537 1.83768,-6.25006 0.67378,-9.2518 -0.25626,-0.59581 -0.98197,-0.83525 -1.45247,-1.2587 -6.17221,-4.36179 -12.82819,-8.04636 -19.90296,-10.48369 -2.77728,-0.9369 -5.64763,-1.65936 -8.54886,-2.0244 -4.3313,-4.47542 -10.45051,-6.93347 -16.51053,-6.56684 z" /></g></g></svg>
