<?xml version="1.0" encoding="UTF-8" standalone="no"?>
<svg xmlns="http://www.w3.org/2000/svg" version="1.1" width="400" height="400" viewbox="0 0 400 400">
<title>undefined</title><path d="M200,0 L0,0 L0,200 L0,400 L200,400 L400,400 L400,200 L400,0 L200,0 " fill="rgb(241, 177, 193)" stroke="none" fill-rule="evenodd"></path><path d="M200,0 L0,0 L0,200 L0,400 L200,400 L400,400 L400,200 L400,0 L200,0 " fill="rgb(255, 255, 255)" stroke="none" fill-rule="evenodd"></path><path d="M200,0 L0,0 L0,200 L0,400 L200,400 L400,400 L400,200 L400,0 L200,0 M327.5,70 C329.425,70,332.8,70.45,335,71 C337.2,71.55,341.025,73.125,343.5,74.5 C345.975,75.875,349.35,78.575,351,80.5 C352.65,82.425,357.15,86.925,361,90.5 C365.018,94.231,369.278,99.982,371,104 C372.65,107.85,373.775,111.9,373.5,113 C373.225,114.1,372.55,116.8,372,119 C371.45,121.2,370.1,125.025,369,127.5 C367.9,129.975,364.975,134.7,362.5,138 C360.025,141.3,356.65,146.025,355,148.5 C353.35,150.975,350.425,154.575,348.5,156.5 C346.575,158.425,343.425,160.9,341.5,162 C339.575,163.1,332.15,165.125,325,166.5 C317.85,167.875,309.975,168.775,307.5,168.5 L303,168 L299.5,178.5 C297.575,184.275,294.65,192.15,293,196 C291.35,199.85,287.3,206.825,284,211.5 C280.7,216.175,277.325,221.575,276.5,223.5 C275.303,226.293,276.01,228.515,280,234.5 C282.75,238.625,286.575,246.05,288.5,251 C290.425,255.95,291.775,261.575,291.5,263.5 C291.225,265.425,289.65,268.35,288,270 C286.35,271.65,281.625,273.675,277.5,274.5 C273.375,275.325,267.75,277.8,265,280 C262.25,282.2,258.425,284.675,256.5,285.5 C254.575,286.325,248.275,286.775,242.5,286.5 C236.725,286.225,230.425,285.325,228.5,284.5 C226.575,283.675,223.875,281.875,222.5,280.5 C221.125,279.125,218.875,274.4,217.5,270 C216.125,265.6,215.225,261.325,215.5,260.5 C215.775,259.675,215.325,259.45,214.5,260 C213.675,260.55,208.725,262.35,203.5,264 C198.275,265.65,191.525,267.225,188.5,267.5 C185.475,267.775,180.975,268.225,178.5,268.5 C176.025,268.775,173.775,268.775,173.5,268.5 C173.225,268.225,172.55,269.35,172,271 C171.45,272.65,168.975,275.35,166.5,277 C164.025,278.65,159.525,280.675,156.5,281.5 C153.475,282.325,147.4,282.775,143,282.5 C138.6,282.225,133.875,282.45,132.5,283 C131.125,283.55,127.525,284.225,124.5,284.5 C121.475,284.775,115.625,284.1,111.5,283 C107.375,281.9,102.425,280.325,100.5,279.5 C98.575,278.675,94.75,276.425,92,274.5 C89.25,272.575,86.325,269.425,85.5,267.5 C84.675,265.575,84.45,262.2,85,260 C85.55,257.8,86.675,251.05,87.5,245 C88.325,238.95,88.775,232.65,88.5,231 C88.225,229.35,84.85,223.95,81,219 C77.15,214.05,66.35,200.775,57,189.5 C47.65,178.225,37.3,164.95,34,160 C30.7,155.05,28.225,149.875,28.5,148.5 C28.775,147.125,29.675,145.55,30.5,145 C31.325,144.45,34.25,144.675,37,145.5 C39.75,146.325,45.375,148.35,49.5,150 C53.625,151.65,62.175,154.35,68.5,156 C74.825,157.65,85.625,159.675,92.5,160.5 C99.375,161.325,113.775,161.775,124.5,161.5 C138.79,161.134,147.34,159.931,156.5,157 C163.375,154.8,172.825,152.55,177.5,152 C182.175,151.45,190.05,151.9,195,153 C199.95,154.1,207.825,156.35,212.5,158 C217.175,159.65,222.8,161.9,225,163 C227.2,164.1,232.375,167.25,236.5,170 C240.625,172.75,245.575,175.9,247.5,177 L251,179 L253,173.5 C254.1,170.475,255.675,162.825,256.5,156.5 C257.325,150.175,258.675,140.725,259.5,135.5 C260.325,130.275,262.125,121.95,263.5,117 C264.875,112.05,267.35,105.525,269,102.5 C270.65,99.475,274.025,94.975,276.5,92.5 C278.975,90.025,283.7,86.875,287,85.5 C290.3,84.125,295.475,81.65,298.5,80 C301.525,78.35,308.5,75.425,314,73.5 C319.5,71.575,325.575,70,327.5,70 M331.5,73.5 C330.125,73.225,324.95,74.125,320,75.5 C315.05,76.875,307.625,79.8,303.5,82 C299.375,84.2,293.525,86.9,290.5,88 C287.475,89.1,283.2,91.575,281,93.5 C278.8,95.425,275.425,99.475,273.5,102.5 C271.575,105.525,269.325,110.025,268.5,112.5 C267.675,114.975,266.55,118.8,266,121 C265.45,123.2,264.55,127.7,264,131 C263.45,134.3,261.875,144.875,260.5,154.5 C259.125,164.125,256.875,174.475,255.5,177.5 C254.125,180.525,252.325,183.225,251.5,183.5 C250.675,183.775,246.175,181.3,241.5,178 C236.825,174.7,229.625,170.2,225.5,168 C221.375,165.8,214.625,162.65,210.5,161 C206.375,159.35,199.175,157.325,194.5,156.5 C189.825,155.675,182.85,155.225,179,155.5 C175.15,155.775,167.725,157.35,162.5,159 C157.275,160.65,150.975,162.675,148.5,163.5 C146.025,164.325,135,165.225,124,165.5 C113,165.775,101.975,165.775,99.5,165.5 C97.025,165.225,90.95,164.325,86,163.5 C81.05,162.675,70.025,159.975,61.5,157.5 C52.975,155.025,43.3,151.875,40,150.5 C36.7,149.125,33.55,148.225,33,148.5 C32.45,148.775,33.8,152.15,36,156 C38.2,159.85,48.775,173.575,59.5,186.5 C70.225,199.425,81.7,213.375,85,217.5 C88.3,221.625,91.45,226.575,92,228.5 C92.55,230.425,92.325,237.175,91.5,243.5 C90.675,249.825,89.55,256.8,89,259 C88.45,261.2,88.45,264.125,89,265.5 C89.55,266.875,92.475,269.8,95.5,272 C98.525,274.2,103.7,276.9,107,278 C110.3,279.1,115.25,280.45,118,281 C120.75,281.55,124.575,281.325,126.5,280.5 C128.923,279.461,130.461,277.154,131.5,273 C132.325,269.7,133.225,265.65,133.5,264 C133.775,262.35,133.775,260.55,133.5,260 C133.225,259.45,133.225,258.775,133.5,258.5 C133.775,258.225,133.775,257.775,133.5,257.5 C133.225,257.225,133.9,256.325,135,255.5 C136.158,254.631,140.578,255.263,145.5,257 C150.175,258.65,158.95,261.125,165,262.5 C171.05,263.875,178.025,264.775,180.5,264.5 C182.975,264.225,188.375,263.55,192.5,263 C196.625,262.45,204.275,260.425,209.5,258.5 L219,255 L219.5,261 C219.775,264.3,221.125,269.475,222.5,272.5 C223.875,275.525,226.575,278.9,228.5,280 C230.425,281.1,236.95,282.225,243,282.5 C250.327,282.833,255.169,282.165,257.5,280.5 C259.425,279.125,261.225,276.2,261.5,274 C261.775,271.8,261.55,267.75,261,265 C260.45,262.25,260.225,257.975,260.5,255.5 C260.775,253.025,261.675,249.425,262.5,247.5 C263.325,245.575,266.025,238.825,268.5,232.5 C270.975,226.175,275.925,216.725,279.5,211.5 C283.075,206.275,286.9,200.2,288,198 C289.1,195.8,291.125,190.85,292.5,187 C293.875,183.15,295.45,177.3,296,174 C296.55,170.7,296.1,166.65,295,165 C293.9,163.35,291.65,160.425,290,158.5 C288.35,156.575,286.1,152.3,285,149 C283.868,145.604,283.651,140.613,284.5,137.5 C285.325,134.475,288.025,129.75,290.5,127 C292.975,124.25,297.025,121.1,299.5,120 C301.975,118.9,304.9,117.775,306,117.5 C307.1,117.225,310.7,117.9,314,119 C317.3,120.1,321.35,121.9,323,123 C324.65,124.1,328.475,125.675,331.5,126.5 C334.525,127.325,341.05,130.475,346,133.5 C350.95,136.525,355.225,139.45,355.5,140 C355.775,140.55,356.9,139.65,358,138 C359.1,136.35,361.125,133.425,362.5,131.5 C363.875,129.575,365.9,125.525,367,122.5 C368.1,119.475,369.225,115.2,369.5,113 C369.775,110.8,368.875,106.975,367.5,104.5 C366.125,102.025,362.075,97.3,358.5,94 C354.925,90.7,349.975,85.75,347.5,83 C345.025,80.25,340.975,77.1,338.5,76 C336.025,74.9,332.875,73.775,331.5,73.5 M328,80.5 C330.2,80.775,333.8,82.35,336,84 C338.2,85.65,340.675,88.575,341.5,90.5 C342.344,92.468,342.125,95.75,341,98 C339.9,100.2,337.875,103.125,336.5,104.5 C335.125,105.875,332.2,107.225,330,107.5 C327.8,107.775,324.425,107.325,322.5,106.5 C320.575,105.675,317.875,103.875,316.5,102.5 C315.125,101.125,313.55,98.65,313,97 C312.45,95.35,312.9,92.2,314,90 C315.1,87.8,317.8,84.65,320,83 C322.2,81.35,325.8,80.225,328,80.5 M328,84.5 C325.603,84.2,322.798,85.202,321,87 C319.35,88.65,317.775,91.8,317.5,94 C317.184,96.53,318.102,98.919,320,100.5 C321.65,101.875,324.575,103.225,326.5,103.5 C328.425,103.775,331.575,102.65,333.5,101 C335.425,99.35,337.225,96.2,337.5,94 C337.816,91.47,336.898,89.081,335,87.5 C333.35,86.125,330.2,84.775,328,84.5 M331,88 C331.55,88,332.45,88.675,333,89.5 C333.55,90.325,333.325,91.9,332.5,93 C331.612,94.184,329.98,94.388,328.5,93.5 C326.64,92.384,326.512,91.488,328,90 C329.1,88.9,330.45,88,331,88 M324.5,94 C324.775,94,324.775,95.35,324.5,97 C324.225,98.65,323.55,99.775,323,99.5 C322.45,99.225,322.45,97.875,323,96.5 C323.55,95.125,324.225,94,324.5,94 M308,122.5 C304.577,122.158,301.266,123.261,297.5,126 C294.475,128.2,291.1,132.25,290,135 C288.9,137.75,288.225,142.475,288.5,145.5 C288.775,148.525,290.575,152.8,292.5,155 C294.425,157.2,297.575,159.9,299.5,161 C301.425,162.1,306.375,163.225,310.5,163.5 C314.625,163.775,320.25,163.55,323,163 C325.75,162.45,331.15,160.875,335,159.5 C338.85,158.125,343.35,155.65,345,154 C346.65,152.35,348.675,149.425,349.5,147.5 C350.38,145.447,350.173,142.966,349,141.5 C347.9,140.125,343.4,137.2,339,135 C334.6,132.8,328.3,130.1,325,129 C321.7,127.9,317.65,126.1,316,125 C314.35,123.9,310.75,122.775,308,122.5 M273.5,234 C273.225,233.45,272.775,234.575,272.5,236.5 C272.225,238.425,270.425,243.825,268.5,248.5 C266.477,253.412,265.211,259.744,265.5,263.5 C265.775,267.075,266.675,270.225,267.5,270.5 C268.325,270.775,272.375,270.325,276.5,269.5 C282.21,268.358,284.358,267.165,285.5,264.5 C286.601,261.932,285.802,258.337,282.5,251 C280.025,245.5,277.1,239.65,276,238 C274.9,236.35,273.775,234.55,273.5,234 M138.5,260.5 C138.225,260.225,138.225,261.8,138.5,264 C138.775,266.2,138.55,270.25,138,273 L137,278 L141.5,278.5 C143.975,278.775,149.825,277.875,154.5,276.5 C159.344,275.075,163.43,272.925,164,271.5 C164.795,269.514,163.973,268.692,160,267.5 C157.25,266.675,151.4,264.875,147,263.5 C142.6,262.125,138.775,260.775,138.5,260.5 " fill="rgb(0, 0, 0)" stroke="none" fill-rule="evenodd"></path></svg>